<mxfile host="65bd71144e">
    <diagram id="oXa8Hlg5jbxmpXMeIq6B" name="Page-1">
        <mxGraphModel dx="2134" dy="1473" grid="0" gridSize="10" guides="1" tooltips="1" connect="1" arrows="1" fold="1" page="0" pageScale="1" pageWidth="4681" pageHeight="3300" background="#ffffff" math="0" shadow="0">
            <root>
                <mxCell id="0"/>
                <mxCell id="1" parent="0" visible="0"/>
                <object label="vpc" id="25">
                    <mxCell parent="0"/>
                </object>
                <mxCell id="A1-Yof_BVdRXVDs76zeP-1" value="VPC" style="points=[[0,0],[0.25,0],[0.5,0],[0.75,0],[1,0],[1,0.25],[1,0.5],[1,0.75],[1,1],[0.75,1],[0.5,1],[0.25,1],[0,1],[0,0.75],[0,0.5],[0,0.25]];outlineConnect=0;gradientColor=none;html=1;whiteSpace=wrap;fontSize=12;fontStyle=0;container=0;pointerEvents=0;collapsible=0;recursiveResize=0;shape=mxgraph.aws4.group;grIcon=mxgraph.aws4.group_vpc;strokeColor=#248814;fillColor=none;verticalAlign=top;align=left;spacingLeft=30;fontColor=#AAB7B8;dashed=0;rounded=0;strokeWidth=1;" parent="25" vertex="1">
                    <mxGeometry x="40" y="126" width="1170" height="924" as="geometry"/>
                </mxCell>
                <mxCell id="A1-Yof_BVdRXVDs76zeP-2" value="Availability Zone" style="fillColor=none;strokeColor=#147EBA;dashed=1;verticalAlign=top;fontStyle=0;fontColor=#147EBA;rounded=0;container=0;strokeWidth=1;" parent="25" vertex="1">
                    <mxGeometry x="60" y="170" width="360" height="860" as="geometry"/>
                </mxCell>
                <mxCell id="A1-Yof_BVdRXVDs76zeP-3" value="Availability Zone" style="fillColor=none;strokeColor=#147EBA;dashed=1;verticalAlign=top;fontStyle=0;fontColor=#147EBA;rounded=0;container=0;strokeWidth=1;" parent="25" vertex="1">
                    <mxGeometry x="440" y="170" width="360" height="860" as="geometry"/>
                </mxCell>
                <mxCell id="A1-Yof_BVdRXVDs76zeP-5" value="Availability Zone" style="fillColor=none;strokeColor=#147EBA;dashed=1;verticalAlign=top;fontStyle=0;fontColor=#147EBA;rounded=0;container=0;strokeWidth=1;" parent="25" vertex="1">
                    <mxGeometry x="820" y="170" width="360" height="860" as="geometry"/>
                </mxCell>
                <mxCell id="174" value="" style="sketch=0;outlineConnect=0;fontColor=#232F3E;gradientColor=none;fillColor=#4D27AA;strokeColor=none;dashed=0;verticalLabelPosition=bottom;verticalAlign=top;align=center;html=1;fontSize=12;fontStyle=0;aspect=fixed;pointerEvents=1;shape=mxgraph.aws4.internet_gateway;shadow=0;comic=0;fontFamily=Helvetica;" vertex="1" parent="25">
                    <mxGeometry x="599.5" y="102" width="51" height="51" as="geometry"/>
                </mxCell>
                <mxCell id="26" value="subnets" parent="0"/>
                <mxCell id="90" value="" style="group" vertex="1" connectable="0" parent="26">
                    <mxGeometry x="50" y="840" width="1139" height="180" as="geometry"/>
                </mxCell>
                <mxCell id="28" value="Subnet" style="outlineConnect=0;html=1;whiteSpace=wrap;fontSize=12;fontStyle=0;shape=mxgraph.aws4.group;grIcon=mxgraph.aws4.group_subnet;verticalAlign=top;align=left;spacingLeft=30;dashed=0;comic=0;metaEdit=0;rounded=0;container=0;fillColor=none;strokeColor=#666666;fontColor=#333333;" vertex="1" parent="90">
                    <mxGeometry width="1139" height="180" as="geometry"/>
                </mxCell>
                <mxCell id="30" value="Isolated" style="text;html=1;strokeColor=none;fillColor=none;align=center;verticalAlign=middle;whiteSpace=wrap;rounded=0;shadow=0;sketch=0;fontColor=#000000;container=0;fontStyle=1" vertex="1" parent="90">
                    <mxGeometry x="21.789565217391306" y="16" width="59.42608695652174" height="30" as="geometry"/>
                </mxCell>
                <mxCell id="105" value="Subnet" style="sketch=0;outlineConnect=0;gradientColor=none;html=1;whiteSpace=wrap;fontSize=12;fontStyle=0;shape=mxgraph.aws4.group;grIcon=mxgraph.aws4.group_subnet;strokeColor=#1A1A1A;fillColor=none;verticalAlign=top;align=left;spacingLeft=30;fontColor=#1A1A1A;dashed=0;shadow=0;comic=0;fontFamily=Helvetica;" vertex="1" parent="26">
                    <mxGeometry x="50" y="374" width="1140" height="454" as="geometry"/>
                </mxCell>
                <mxCell id="168" value="Private" style="text;html=1;strokeColor=none;fillColor=none;align=center;verticalAlign=middle;whiteSpace=wrap;rounded=0;shadow=0;sketch=0;fontColor=#000000;container=0;fontStyle=1" vertex="1" parent="26">
                    <mxGeometry x="70.99956521739131" y="388" width="59.42608695652174" height="30" as="geometry"/>
                </mxCell>
                <mxCell id="172" value="" style="endArrow=classic;startArrow=classic;html=1;rounded=1;shadow=0;labelBackgroundColor=default;sketch=0;fontFamily=Helvetica;fontSize=12;fontColor=#1A1A1A;strokeColor=#6666FF;strokeWidth=1;fillColor=#6a00ff;shape=connector;" edge="1" parent="26" source="33" target="42">
                    <mxGeometry width="50" height="50" relative="1" as="geometry">
                        <mxPoint x="698" y="645" as="sourcePoint"/>
                        <mxPoint x="748" y="595" as="targetPoint"/>
                        <Array as="points">
                            <mxPoint x="757" y="679"/>
                        </Array>
                    </mxGeometry>
                </mxCell>
                <mxCell id="179" value="Subnet" style="sketch=0;outlineConnect=0;gradientColor=none;html=1;whiteSpace=wrap;fontSize=12;fontStyle=0;shape=mxgraph.aws4.group;grIcon=mxgraph.aws4.group_subnet;strokeColor=#1A1A1A;fillColor=none;verticalAlign=top;align=left;spacingLeft=30;fontColor=#1A1A1A;dashed=0;shadow=0;comic=0;fontFamily=Helvetica;" vertex="1" parent="26">
                    <mxGeometry x="50" y="203" width="1140" height="108" as="geometry"/>
                </mxCell>
                <mxCell id="180" value="Public" style="text;html=1;strokeColor=none;fillColor=none;align=center;verticalAlign=middle;whiteSpace=wrap;rounded=0;shadow=0;sketch=0;fontColor=#000000;container=0;fontStyle=1" vertex="1" parent="26">
                    <mxGeometry x="70.99956521739131" y="217" width="59.42608695652174" height="30" as="geometry"/>
                </mxCell>
                <mxCell id="182" style="edgeStyle=none;shape=connector;rounded=1;sketch=0;html=1;entryX=0.488;entryY=0.002;entryDx=0;entryDy=0;entryPerimeter=0;shadow=0;labelBackgroundColor=default;fontFamily=Helvetica;fontSize=12;fontColor=#1A1A1A;endArrow=classic;strokeColor=#6666FF;strokeWidth=1;fillColor=#6a00ff;" edge="1" parent="26" source="181" target="105">
                    <mxGeometry relative="1" as="geometry"/>
                </mxCell>
                <mxCell id="181" value="" style="sketch=0;outlineConnect=0;fontColor=#232F3E;gradientColor=none;fillColor=#4D27AA;strokeColor=none;dashed=0;verticalLabelPosition=bottom;verticalAlign=top;align=center;html=1;fontSize=12;fontStyle=0;aspect=fixed;pointerEvents=1;shape=mxgraph.aws4.nat_gateway;shadow=0;comic=0;fontFamily=Helvetica;" vertex="1" parent="26">
                    <mxGeometry x="577" y="229" width="60" height="60" as="geometry"/>
                </mxCell>
                <mxCell id="31" value="salt-master" parent="0"/>
                <mxCell id="143" value="Security group" style="fillColor=none;strokeColor=#DD3522;verticalAlign=top;fontStyle=0;fontColor=#DD3522;shadow=0;dashed=1;comic=0;sketch=0;fontFamily=Helvetica;fontSize=10;" vertex="1" parent="31">
                    <mxGeometry x="188.5" y="723" width="85" height="89" as="geometry"/>
                </mxCell>
                <mxCell id="142" value="Security group" style="fillColor=none;strokeColor=#DD3522;verticalAlign=top;fontStyle=0;fontColor=#DD3522;shadow=0;dashed=1;comic=0;sketch=0;fontFamily=Helvetica;fontSize=10;" vertex="1" parent="31">
                    <mxGeometry x="587" y="734" width="72" height="74" as="geometry"/>
                </mxCell>
                <mxCell id="141" value="Security group" style="fillColor=none;strokeColor=#DD3522;verticalAlign=top;fontStyle=0;fontColor=#DD3522;shadow=0;dashed=1;comic=0;sketch=0;fontFamily=Helvetica;fontSize=10;" vertex="1" parent="31">
                    <mxGeometry x="957.5" y="723" width="85" height="89" as="geometry"/>
                </mxCell>
                <mxCell id="32" value="" style="sketch=0;points=[[0,0,0],[0.25,0,0],[0.5,0,0],[0.75,0,0],[1,0,0],[0,1,0],[0.25,1,0],[0.5,1,0],[0.75,1,0],[1,1,0],[0,0.25,0],[0,0.5,0],[0,0.75,0],[1,0.25,0],[1,0.5,0],[1,0.75,0]];outlineConnect=0;fontColor=#232F3E;gradientColor=#F78E04;gradientDirection=north;fillColor=#D05C17;strokeColor=#ffffff;dashed=0;verticalLabelPosition=bottom;verticalAlign=top;align=center;html=1;fontSize=12;fontStyle=0;aspect=fixed;shape=mxgraph.aws4.resourceIcon;resIcon=mxgraph.aws4.ec2;shadow=0;comic=0;backgroundOutline=0;container=0;" vertex="1" parent="31">
                    <mxGeometry x="208.5" y="752.5" width="45" height="45" as="geometry"/>
                </mxCell>
                <mxCell id="33" value="Auto Scaling group" style="points=[[0,0],[0.25,0],[0.5,0],[0.75,0],[1,0],[1,0.25],[1,0.5],[1,0.75],[1,1],[0.75,1],[0.5,1],[0.25,1],[0,1],[0,0.75],[0,0.5],[0,0.25]];outlineConnect=0;gradientColor=none;html=1;whiteSpace=wrap;fontSize=12;fontStyle=0;container=0;pointerEvents=0;collapsible=0;recursiveResize=0;shape=mxgraph.aws4.groupCenter;grIcon=mxgraph.aws4.group_auto_scaling_group;grStroke=1;strokeColor=#D86613;fillColor=none;verticalAlign=top;align=center;fontColor=#D86613;dashed=1;spacingTop=25;strokeWidth=1;shadow=0;sketch=0;" vertex="1" parent="31">
                    <mxGeometry x="50" y="688" width="1140" height="130" as="geometry"/>
                </mxCell>
                <mxCell id="34" value="salt-master" style="text;strokeColor=none;fillColor=none;html=1;fontSize=15;fontStyle=1;verticalAlign=middle;align=center;shadow=0;sketch=0;fontColor=#000000;container=0;" vertex="1" parent="31">
                    <mxGeometry x="511" y="686" width="100" height="40" as="geometry"/>
                </mxCell>
                <mxCell id="35" value="" style="sketch=0;points=[[0,0,0],[0.25,0,0],[0.5,0,0],[0.75,0,0],[1,0,0],[0,1,0],[0.25,1,0],[0.5,1,0],[0.75,1,0],[1,1,0],[0,0.25,0],[0,0.5,0],[0,0.75,0],[1,0.25,0],[1,0.5,0],[1,0.75,0]];outlineConnect=0;fontColor=#232F3E;gradientColor=#F78E04;gradientDirection=north;fillColor=#D05C17;strokeColor=#ffffff;dashed=0;verticalLabelPosition=bottom;verticalAlign=top;align=center;html=1;fontSize=12;fontStyle=0;aspect=fixed;shape=mxgraph.aws4.resourceIcon;resIcon=mxgraph.aws4.ec2;shadow=0;comic=0;backgroundOutline=0;container=0;" vertex="1" parent="31">
                    <mxGeometry x="600.5" y="752.5" width="45" height="45" as="geometry"/>
                </mxCell>
                <mxCell id="36" value="" style="sketch=0;points=[[0,0,0],[0.25,0,0],[0.5,0,0],[0.75,0,0],[1,0,0],[0,1,0],[0.25,1,0],[0.5,1,0],[0.75,1,0],[1,1,0],[0,0.25,0],[0,0.5,0],[0,0.75,0],[1,0.25,0],[1,0.5,0],[1,0.75,0]];outlineConnect=0;fontColor=#232F3E;gradientColor=#F78E04;gradientDirection=north;fillColor=#D05C17;strokeColor=#ffffff;dashed=0;verticalLabelPosition=bottom;verticalAlign=top;align=center;html=1;fontSize=12;fontStyle=0;aspect=fixed;shape=mxgraph.aws4.resourceIcon;resIcon=mxgraph.aws4.ec2;shadow=0;comic=0;backgroundOutline=0;container=0;" vertex="1" parent="31">
                    <mxGeometry x="977.5" y="752.5" width="45" height="45" as="geometry"/>
                </mxCell>
                <mxCell id="135" style="edgeStyle=none;shape=connector;rounded=1;sketch=0;html=1;entryX=0.5;entryY=0;entryDx=0;entryDy=0;shadow=0;labelBackgroundColor=default;fontFamily=Helvetica;fontSize=15;fontColor=#1A1A1A;endArrow=classic;strokeColor=#6666FF;strokeWidth=1;fillColor=#6a00ff;" edge="1" parent="31" source="136">
                    <mxGeometry relative="1" as="geometry">
                        <mxPoint x="620" y="688" as="targetPoint"/>
                        <Array as="points">
                            <mxPoint x="620" y="672"/>
                        </Array>
                    </mxGeometry>
                </mxCell>
                <mxCell id="136" value="" style="sketch=0;points=[[0,0,0],[0.25,0,0],[0.5,0,0],[0.75,0,0],[1,0,0],[0,1,0],[0.25,1,0],[0.5,1,0],[0.75,1,0],[1,1,0],[0,0.25,0],[0,0.5,0],[0,0.75,0],[1,0.25,0],[1,0.5,0],[1,0.75,0]];outlineConnect=0;fontColor=#232F3E;gradientColor=#60A337;gradientDirection=north;fillColor=#277116;strokeColor=#ffffff;dashed=0;verticalLabelPosition=bottom;verticalAlign=top;align=center;html=1;fontSize=12;fontStyle=0;aspect=fixed;shape=mxgraph.aws4.resourceIcon;resIcon=mxgraph.aws4.s3;shadow=0;comic=0;fontFamily=Helvetica;" vertex="1" parent="31">
                    <mxGeometry x="1245" y="640" width="60" height="60" as="geometry"/>
                </mxCell>
                <mxCell id="192" value="" style="sketch=0;outlineConnect=0;fontColor=#232F3E;gradientColor=none;fillColor=#4D27AA;strokeColor=none;dashed=0;verticalLabelPosition=bottom;verticalAlign=top;align=center;html=1;fontSize=12;fontStyle=0;aspect=fixed;pointerEvents=1;shape=mxgraph.aws4.gateway;shadow=0;comic=0;fontFamily=Helvetica;" vertex="1" parent="31">
                    <mxGeometry x="1188" y="648" width="45" height="46.18" as="geometry"/>
                </mxCell>
                <mxCell id="198" value="" style="sketch=0;points=[[0,0,0],[0.25,0,0],[0.5,0,0],[0.75,0,0],[1,0,0],[0,1,0],[0.25,1,0],[0.5,1,0],[0.75,1,0],[1,1,0],[0,0.25,0],[0,0.5,0],[0,0.75,0],[1,0.25,0],[1,0.5,0],[1,0.75,0]];outlineConnect=0;fontColor=#232F3E;gradientColor=#F54749;gradientDirection=north;fillColor=#C7131F;strokeColor=#ffffff;dashed=0;verticalLabelPosition=bottom;verticalAlign=top;align=center;html=1;fontSize=12;fontStyle=0;aspect=fixed;shape=mxgraph.aws4.resourceIcon;resIcon=mxgraph.aws4.key_management_service;shadow=0;comic=0;fontFamily=Helvetica;" vertex="1" parent="31">
                    <mxGeometry x="1296" y="611" width="39" height="39" as="geometry"/>
                </mxCell>
                <mxCell id="37" value="salt-minion" parent="0"/>
                <mxCell id="38" value="salt-minion" style="text;strokeColor=none;fillColor=none;html=1;fontSize=15;fontStyle=1;verticalAlign=middle;align=center;shadow=0;sketch=0;fontColor=#000000;container=0;" vertex="1" parent="37">
                    <mxGeometry x="510" y="534" width="100" height="40" as="geometry"/>
                </mxCell>
                <mxCell id="39" value="" style="sketch=0;points=[[0,0,0],[0.25,0,0],[0.5,0,0],[0.75,0,0],[1,0,0],[0,1,0],[0.25,1,0],[0.5,1,0],[0.75,1,0],[1,1,0],[0,0.25,0],[0,0.5,0],[0,0.75,0],[1,0.25,0],[1,0.5,0],[1,0.75,0]];outlineConnect=0;fontColor=#232F3E;gradientColor=#F78E04;gradientDirection=north;fillColor=#D05C17;strokeColor=#ffffff;dashed=0;verticalLabelPosition=bottom;verticalAlign=top;align=center;html=1;fontSize=12;fontStyle=0;aspect=fixed;shape=mxgraph.aws4.resourceIcon;resIcon=mxgraph.aws4.ec2;shadow=0;comic=0;backgroundOutline=0;container=0;" vertex="1" parent="37">
                    <mxGeometry x="978" y="600" width="45" height="45" as="geometry"/>
                </mxCell>
                <mxCell id="40" value="" style="sketch=0;points=[[0,0,0],[0.25,0,0],[0.5,0,0],[0.75,0,0],[1,0,0],[0,1,0],[0.25,1,0],[0.5,1,0],[0.75,1,0],[1,1,0],[0,0.25,0],[0,0.5,0],[0,0.75,0],[1,0.25,0],[1,0.5,0],[1,0.75,0]];outlineConnect=0;fontColor=#232F3E;gradientColor=#F78E04;gradientDirection=north;fillColor=#D05C17;strokeColor=#ffffff;dashed=0;verticalLabelPosition=bottom;verticalAlign=top;align=center;html=1;fontSize=12;fontStyle=0;aspect=fixed;shape=mxgraph.aws4.resourceIcon;resIcon=mxgraph.aws4.ec2;shadow=0;comic=0;backgroundOutline=0;container=0;" vertex="1" parent="37">
                    <mxGeometry x="598" y="600" width="45" height="45" as="geometry"/>
                </mxCell>
                <mxCell id="41" value="" style="sketch=0;points=[[0,0,0],[0.25,0,0],[0.5,0,0],[0.75,0,0],[1,0,0],[0,1,0],[0.25,1,0],[0.5,1,0],[0.75,1,0],[1,1,0],[0,0.25,0],[0,0.5,0],[0,0.75,0],[1,0.25,0],[1,0.5,0],[1,0.75,0]];outlineConnect=0;fontColor=#232F3E;gradientColor=#F78E04;gradientDirection=north;fillColor=#D05C17;strokeColor=#ffffff;dashed=0;verticalLabelPosition=bottom;verticalAlign=top;align=center;html=1;fontSize=12;fontStyle=0;aspect=fixed;shape=mxgraph.aws4.resourceIcon;resIcon=mxgraph.aws4.ec2;shadow=0;comic=0;backgroundOutline=0;container=0;" vertex="1" parent="37">
                    <mxGeometry x="208" y="600" width="45" height="45" as="geometry"/>
                </mxCell>
                <mxCell id="42" value="Auto Scaling group" style="points=[[0,0],[0.25,0],[0.5,0],[0.75,0],[1,0],[1,0.25],[1,0.5],[1,0.75],[1,1],[0.75,1],[0.5,1],[0.25,1],[0,1],[0,0.75],[0,0.5],[0,0.25]];outlineConnect=0;gradientColor=none;html=1;whiteSpace=wrap;fontSize=12;fontStyle=0;container=0;pointerEvents=0;collapsible=0;recursiveResize=0;shape=mxgraph.aws4.groupCenter;grIcon=mxgraph.aws4.group_auto_scaling_group;grStroke=1;strokeColor=#D86613;fillColor=none;verticalAlign=top;align=center;fontColor=#D86613;dashed=1;spacingTop=25;strokeWidth=1;shadow=0;sketch=0;" vertex="1" parent="37">
                    <mxGeometry x="50" y="534" width="1140" height="130" as="geometry"/>
                </mxCell>
                <mxCell id="144" value="Security group" style="fillColor=none;strokeColor=#DD3522;verticalAlign=top;fontStyle=0;fontColor=#DD3522;shadow=0;dashed=1;comic=0;sketch=0;fontFamily=Helvetica;fontSize=10;" vertex="1" parent="37">
                    <mxGeometry x="958" y="579" width="85" height="79" as="geometry"/>
                </mxCell>
                <mxCell id="145" value="Security group" style="fillColor=none;strokeColor=#DD3522;verticalAlign=top;fontStyle=0;fontColor=#DD3522;shadow=0;dashed=1;comic=0;sketch=0;fontFamily=Helvetica;fontSize=10;" vertex="1" parent="37">
                    <mxGeometry x="188" y="579" width="85" height="79" as="geometry"/>
                </mxCell>
                <mxCell id="146" value="Security group" style="fillColor=none;strokeColor=#DD3522;verticalAlign=top;fontStyle=0;fontColor=#DD3522;shadow=0;dashed=1;comic=0;sketch=0;fontFamily=Helvetica;fontSize=10;" vertex="1" parent="37">
                    <mxGeometry x="584" y="581.5" width="72" height="74" as="geometry"/>
                </mxCell>
                <mxCell id="43" value="image-builder" parent="0"/>
                <mxCell id="140" value="Security group" style="fillColor=none;strokeColor=#DD3522;verticalAlign=top;fontStyle=0;fontColor=#DD3522;shadow=0;dashed=1;comic=0;sketch=0;fontFamily=Helvetica;fontSize=10;" vertex="1" parent="43">
                    <mxGeometry x="82" y="422" width="80" height="95" as="geometry"/>
                </mxCell>
                <mxCell id="113" style="edgeStyle=none;shape=connector;rounded=1;sketch=0;html=1;shadow=0;labelBackgroundColor=default;fontFamily=Helvetica;fontSize=15;fontColor=#1A1A1A;endArrow=classic;strokeColor=#6666FF;strokeWidth=1;fillColor=#6a00ff;" edge="1" parent="43" source="44" target="112">
                    <mxGeometry relative="1" as="geometry"/>
                </mxCell>
                <mxCell id="120" style="edgeStyle=none;shape=connector;rounded=1;sketch=0;html=1;shadow=0;labelBackgroundColor=default;fontFamily=Helvetica;fontSize=15;fontColor=#1A1A1A;endArrow=classic;strokeColor=#6666FF;strokeWidth=1;fillColor=#6a00ff;" edge="1" parent="43" source="44" target="119">
                    <mxGeometry relative="1" as="geometry"/>
                </mxCell>
                <mxCell id="44" value="" style="points=[[0,0,0],[0.25,0,0],[0.5,0,0],[0.75,0,0],[1,0,0],[0,1,0],[0.25,1,0],[0.5,1,0],[0.75,1,0],[1,1,0],[0,0.25,0],[0,0.5,0],[0,0.75,0],[1,0.25,0],[1,0.5,0],[1,0.75,0]];outlineConnect=0;fontColor=#232F3E;gradientColor=#F78E04;gradientDirection=north;fillColor=#D05C17;strokeColor=#ffffff;dashed=0;verticalLabelPosition=bottom;verticalAlign=top;align=center;html=1;fontSize=12;fontStyle=0;aspect=fixed;shape=mxgraph.aws4.resourceIcon;resIcon=mxgraph.aws4.ec2_image_builder;comic=0;rounded=0;sketch=0;shadow=0;container=0;" vertex="1" parent="43">
                    <mxGeometry x="92" y="443" width="60" height="60" as="geometry"/>
                </mxCell>
                <mxCell id="127" style="edgeStyle=none;shape=connector;rounded=1;sketch=0;html=1;entryX=0;entryY=0.5;entryDx=0;entryDy=0;entryPerimeter=0;shadow=0;labelBackgroundColor=default;fontFamily=Helvetica;fontSize=15;fontColor=#1A1A1A;endArrow=classic;strokeColor=#6666FF;strokeWidth=1;fillColor=#6a00ff;" edge="1" parent="43" source="46" target="121">
                    <mxGeometry relative="1" as="geometry"/>
                </mxCell>
                <mxCell id="132" style="edgeStyle=none;shape=connector;rounded=1;sketch=0;html=1;shadow=0;labelBackgroundColor=default;fontFamily=Helvetica;fontSize=15;fontColor=#1A1A1A;endArrow=classic;strokeColor=#6666FF;strokeWidth=1;fillColor=#6a00ff;" edge="1" parent="43" source="46" target="131">
                    <mxGeometry relative="1" as="geometry"/>
                </mxCell>
                <mxCell id="46" value="" style="points=[[0,0,0],[0.25,0,0],[0.5,0,0],[0.75,0,0],[1,0,0],[0,1,0],[0.25,1,0],[0.5,1,0],[0.75,1,0],[1,1,0],[0,0.25,0],[0,0.5,0],[0,0.75,0],[1,0.25,0],[1,0.5,0],[1,0.75,0]];outlineConnect=0;fontColor=#232F3E;gradientColor=#F78E04;gradientDirection=north;fillColor=#D05C17;strokeColor=#ffffff;dashed=0;verticalLabelPosition=bottom;verticalAlign=top;align=center;html=1;fontSize=12;fontStyle=0;aspect=fixed;shape=mxgraph.aws4.resourceIcon;resIcon=mxgraph.aws4.ec2_image_builder;comic=0;rounded=0;container=0;" vertex="1" parent="43">
                    <mxGeometry x="1086" y="428.5" width="60" height="60" as="geometry"/>
                </mxCell>
                <mxCell id="108" style="edgeStyle=none;shape=connector;rounded=1;sketch=0;html=1;entryX=0;entryY=0.5;entryDx=0;entryDy=0;entryPerimeter=0;shadow=0;labelBackgroundColor=default;fontFamily=Helvetica;fontSize=15;fontColor=#1A1A1A;endArrow=classic;strokeColor=#6666FF;strokeWidth=1;fillColor=#6a00ff;" edge="1" parent="43" source="107" target="44">
                    <mxGeometry relative="1" as="geometry"/>
                </mxCell>
                <mxCell id="107" value="" style="sketch=0;points=[[0,0,0],[0.25,0,0],[0.5,0,0],[0.75,0,0],[1,0,0],[0,1,0],[0.25,1,0],[0.5,1,0],[0.75,1,0],[1,1,0],[0,0.25,0],[0,0.5,0],[0,0.75,0],[1,0.25,0],[1,0.5,0],[1,0.75,0]];outlineConnect=0;fontColor=#232F3E;gradientColor=#60A337;gradientDirection=north;fillColor=#277116;strokeColor=#ffffff;dashed=0;verticalLabelPosition=bottom;verticalAlign=top;align=center;html=1;fontSize=12;fontStyle=0;aspect=fixed;shape=mxgraph.aws4.resourceIcon;resIcon=mxgraph.aws4.s3;shadow=0;comic=0;fontFamily=Helvetica;" vertex="1" parent="43">
                    <mxGeometry x="-100" y="357" width="60" height="60" as="geometry"/>
                </mxCell>
                <mxCell id="111" style="edgeStyle=none;shape=connector;rounded=1;sketch=0;html=1;entryX=1;entryY=0.5;entryDx=0;entryDy=0;entryPerimeter=0;shadow=0;labelBackgroundColor=default;fontFamily=Helvetica;fontSize=15;fontColor=#1A1A1A;endArrow=classic;strokeColor=#6666FF;strokeWidth=1;fillColor=#6a00ff;" edge="1" parent="43" source="110" target="46">
                    <mxGeometry relative="1" as="geometry"/>
                </mxCell>
                <mxCell id="110" value="" style="sketch=0;points=[[0,0,0],[0.25,0,0],[0.5,0,0],[0.75,0,0],[1,0,0],[0,1,0],[0.25,1,0],[0.5,1,0],[0.75,1,0],[1,1,0],[0,0.25,0],[0,0.5,0],[0,0.75,0],[1,0.25,0],[1,0.5,0],[1,0.75,0]];outlineConnect=0;fontColor=#232F3E;gradientColor=#60A337;gradientDirection=north;fillColor=#277116;strokeColor=#ffffff;dashed=0;verticalLabelPosition=bottom;verticalAlign=top;align=center;html=1;fontSize=12;fontStyle=0;aspect=fixed;shape=mxgraph.aws4.resourceIcon;resIcon=mxgraph.aws4.s3;shadow=0;comic=0;fontFamily=Helvetica;" vertex="1" parent="43">
                    <mxGeometry x="1237" y="363" width="60" height="60" as="geometry"/>
                </mxCell>
                <mxCell id="115" style="edgeStyle=none;shape=connector;rounded=1;sketch=0;html=1;shadow=0;labelBackgroundColor=default;fontFamily=Helvetica;fontSize=15;fontColor=#1A1A1A;endArrow=classic;strokeColor=#6666FF;strokeWidth=1;fillColor=#6a00ff;" edge="1" parent="43" source="112" target="114">
                    <mxGeometry relative="1" as="geometry"/>
                </mxCell>
                <mxCell id="112" value="" style="sketch=0;points=[[0,0,0],[0.25,0,0],[0.5,0,0],[0.75,0,0],[1,0,0],[0,1,0],[0.25,1,0],[0.5,1,0],[0.75,1,0],[1,1,0],[0,0.25,0],[0,0.5,0],[0,0.75,0],[1,0.25,0],[1,0.5,0],[1,0.75,0]];outlineConnect=0;fontColor=#232F3E;gradientColor=#FF4F8B;gradientDirection=north;fillColor=#BC1356;strokeColor=#ffffff;dashed=0;verticalLabelPosition=bottom;verticalAlign=top;align=center;html=1;fontSize=12;fontStyle=0;aspect=fixed;shape=mxgraph.aws4.resourceIcon;resIcon=mxgraph.aws4.sns;shadow=0;comic=0;fontFamily=Helvetica;" vertex="1" parent="43">
                    <mxGeometry x="-100" y="439.5" width="60" height="60" as="geometry"/>
                </mxCell>
                <mxCell id="117" style="edgeStyle=none;shape=connector;rounded=1;sketch=0;html=1;shadow=0;labelBackgroundColor=default;fontFamily=Helvetica;fontSize=15;fontColor=#1A1A1A;endArrow=classic;strokeColor=#6666FF;strokeWidth=1;fillColor=#6a00ff;" edge="1" parent="43" source="114" target="116">
                    <mxGeometry relative="1" as="geometry"/>
                </mxCell>
                <mxCell id="118" style="edgeStyle=none;shape=connector;rounded=1;sketch=0;html=1;entryX=0.5;entryY=0;entryDx=0;entryDy=0;shadow=0;labelBackgroundColor=default;fontFamily=Helvetica;fontSize=15;fontColor=#1A1A1A;endArrow=classic;strokeColor=#6666FF;strokeWidth=1;fillColor=#6a00ff;" edge="1" parent="43" source="114" target="33">
                    <mxGeometry relative="1" as="geometry">
                        <Array as="points">
                            <mxPoint x="-70" y="671"/>
                            <mxPoint x="620" y="671"/>
                        </Array>
                    </mxGeometry>
                </mxCell>
                <mxCell id="114" value="" style="sketch=0;points=[[0,0,0],[0.25,0,0],[0.5,0,0],[0.75,0,0],[1,0,0],[0,1,0],[0.25,1,0],[0.5,1,0],[0.75,1,0],[1,1,0],[0,0.25,0],[0,0.5,0],[0,0.75,0],[1,0.25,0],[1,0.5,0],[1,0.75,0]];outlineConnect=0;fontColor=#232F3E;gradientColor=#F78E04;gradientDirection=north;fillColor=#D05C17;strokeColor=#ffffff;dashed=0;verticalLabelPosition=bottom;verticalAlign=top;align=center;html=1;fontSize=12;fontStyle=0;aspect=fixed;shape=mxgraph.aws4.resourceIcon;resIcon=mxgraph.aws4.lambda;shadow=0;comic=0;fontFamily=Helvetica;" vertex="1" parent="43">
                    <mxGeometry x="-100" y="527" width="60" height="60" as="geometry"/>
                </mxCell>
                <mxCell id="116" value="" style="sketch=0;outlineConnect=0;fontColor=#232F3E;gradientColor=none;fillColor=#B0084D;strokeColor=none;dashed=0;verticalLabelPosition=bottom;verticalAlign=top;align=center;html=1;fontSize=12;fontStyle=0;aspect=fixed;pointerEvents=1;shape=mxgraph.aws4.parameter_store;shadow=0;comic=0;fontFamily=Helvetica;" vertex="1" parent="43">
                    <mxGeometry x="-194" y="525.8" width="60" height="62.4" as="geometry"/>
                </mxCell>
                <mxCell id="119" value="" style="sketch=0;outlineConnect=0;fontColor=#232F3E;gradientColor=none;fillColor=#D45B07;strokeColor=none;dashed=0;verticalLabelPosition=bottom;verticalAlign=top;align=center;html=1;fontSize=12;fontStyle=0;aspect=fixed;pointerEvents=1;shape=mxgraph.aws4.ami;shadow=0;comic=0;fontFamily=Helvetica;" vertex="1" parent="43">
                    <mxGeometry x="206" y="443" width="60" height="60" as="geometry"/>
                </mxCell>
                <mxCell id="128" style="edgeStyle=none;shape=connector;rounded=1;sketch=0;html=1;shadow=0;labelBackgroundColor=default;fontFamily=Helvetica;fontSize=15;fontColor=#1A1A1A;endArrow=classic;strokeColor=#6666FF;strokeWidth=1;fillColor=#6a00ff;" edge="1" parent="43" source="121" target="123">
                    <mxGeometry relative="1" as="geometry">
                        <Array as="points">
                            <mxPoint x="1349" y="460"/>
                        </Array>
                    </mxGeometry>
                </mxCell>
                <mxCell id="121" value="" style="sketch=0;points=[[0,0,0],[0.25,0,0],[0.5,0,0],[0.75,0,0],[1,0,0],[0,1,0],[0.25,1,0],[0.5,1,0],[0.75,1,0],[1,1,0],[0,0.25,0],[0,0.5,0],[0,0.75,0],[1,0.25,0],[1,0.5,0],[1,0.75,0]];outlineConnect=0;fontColor=#232F3E;gradientColor=#FF4F8B;gradientDirection=north;fillColor=#BC1356;strokeColor=#ffffff;dashed=0;verticalLabelPosition=bottom;verticalAlign=top;align=center;html=1;fontSize=12;fontStyle=0;aspect=fixed;shape=mxgraph.aws4.resourceIcon;resIcon=mxgraph.aws4.sns;shadow=0;comic=0;fontFamily=Helvetica;" vertex="1" parent="43">
                    <mxGeometry x="1237" y="430" width="60" height="60" as="geometry"/>
                </mxCell>
                <mxCell id="129" style="edgeStyle=none;shape=connector;rounded=1;sketch=0;html=1;shadow=0;labelBackgroundColor=default;fontFamily=Helvetica;fontSize=15;fontColor=#1A1A1A;endArrow=classic;strokeColor=#6666FF;strokeWidth=1;fillColor=#6a00ff;" edge="1" parent="43" source="123" target="124">
                    <mxGeometry relative="1" as="geometry"/>
                </mxCell>
                <mxCell id="130" style="edgeStyle=none;shape=connector;rounded=1;sketch=0;html=1;entryX=0.5;entryY=0;entryDx=0;entryDy=0;shadow=0;labelBackgroundColor=default;fontFamily=Helvetica;fontSize=15;fontColor=#1A1A1A;endArrow=classic;strokeColor=#6666FF;strokeWidth=1;fillColor=#6a00ff;" edge="1" parent="43" source="123" target="42">
                    <mxGeometry relative="1" as="geometry">
                        <Array as="points">
                            <mxPoint x="620" y="514"/>
                        </Array>
                    </mxGeometry>
                </mxCell>
                <mxCell id="123" value="" style="sketch=0;points=[[0,0,0],[0.25,0,0],[0.5,0,0],[0.75,0,0],[1,0,0],[0,1,0],[0.25,1,0],[0.5,1,0],[0.75,1,0],[1,1,0],[0,0.25,0],[0,0.5,0],[0,0.75,0],[1,0.25,0],[1,0.5,0],[1,0.75,0]];outlineConnect=0;fontColor=#232F3E;gradientColor=#F78E04;gradientDirection=north;fillColor=#D05C17;strokeColor=#ffffff;dashed=0;verticalLabelPosition=bottom;verticalAlign=top;align=center;html=1;fontSize=12;fontStyle=0;aspect=fixed;shape=mxgraph.aws4.resourceIcon;resIcon=mxgraph.aws4.lambda;shadow=0;comic=0;fontFamily=Helvetica;" vertex="1" parent="43">
                    <mxGeometry x="1319" y="484" width="60" height="60" as="geometry"/>
                </mxCell>
                <mxCell id="124" value="" style="sketch=0;outlineConnect=0;fontColor=#232F3E;gradientColor=none;fillColor=#B0084D;strokeColor=none;dashed=0;verticalLabelPosition=bottom;verticalAlign=top;align=center;html=1;fontSize=12;fontStyle=0;aspect=fixed;pointerEvents=1;shape=mxgraph.aws4.parameter_store;shadow=0;comic=0;fontFamily=Helvetica;" vertex="1" parent="43">
                    <mxGeometry x="1413" y="481.6" width="60" height="62.4" as="geometry"/>
                </mxCell>
                <mxCell id="131" value="" style="sketch=0;outlineConnect=0;fontColor=#232F3E;gradientColor=none;fillColor=#D45B07;strokeColor=none;dashed=0;verticalLabelPosition=bottom;verticalAlign=top;align=center;html=1;fontSize=12;fontStyle=0;aspect=fixed;pointerEvents=1;shape=mxgraph.aws4.ami;shadow=0;comic=0;fontFamily=Helvetica;" vertex="1" parent="43">
                    <mxGeometry x="978" y="428.5" width="60" height="60" as="geometry"/>
                </mxCell>
                <mxCell id="139" value="Security group" style="fillColor=none;strokeColor=#DD3522;verticalAlign=top;fontStyle=0;fontColor=#DD3522;shadow=0;dashed=1;comic=0;sketch=0;fontFamily=Helvetica;fontSize=10;" vertex="1" parent="43">
                    <mxGeometry x="1076" y="404.5" width="80" height="95" as="geometry"/>
                </mxCell>
                <mxCell id="190" value="" style="sketch=0;outlineConnect=0;fontColor=#232F3E;gradientColor=none;fillColor=#4D27AA;strokeColor=none;dashed=0;verticalLabelPosition=bottom;verticalAlign=top;align=center;html=1;fontSize=12;fontStyle=0;aspect=fixed;pointerEvents=1;shape=mxgraph.aws4.gateway;shadow=0;comic=0;fontFamily=Helvetica;" vertex="1" parent="43">
                    <mxGeometry x="18" y="423" width="45" height="46.18" as="geometry"/>
                </mxCell>
                <mxCell id="193" value="" style="sketch=0;outlineConnect=0;fontColor=#232F3E;gradientColor=none;fillColor=#4D27AA;strokeColor=none;dashed=0;verticalLabelPosition=bottom;verticalAlign=top;align=center;html=1;fontSize=12;fontStyle=0;aspect=fixed;pointerEvents=1;shape=mxgraph.aws4.gateway;shadow=0;comic=0;fontFamily=Helvetica;" vertex="1" parent="43">
                    <mxGeometry x="1188" y="401" width="45" height="46.18" as="geometry"/>
                </mxCell>
                <mxCell id="196" value="" style="sketch=0;points=[[0,0,0],[0.25,0,0],[0.5,0,0],[0.75,0,0],[1,0,0],[0,1,0],[0.25,1,0],[0.5,1,0],[0.75,1,0],[1,1,0],[0,0.25,0],[0,0.5,0],[0,0.75,0],[1,0.25,0],[1,0.5,0],[1,0.75,0]];outlineConnect=0;fontColor=#232F3E;gradientColor=#F54749;gradientDirection=north;fillColor=#C7131F;strokeColor=#ffffff;dashed=0;verticalLabelPosition=bottom;verticalAlign=top;align=center;html=1;fontSize=12;fontStyle=0;aspect=fixed;shape=mxgraph.aws4.resourceIcon;resIcon=mxgraph.aws4.key_management_service;shadow=0;comic=0;fontFamily=Helvetica;" vertex="1" parent="43">
                    <mxGeometry x="1291" y="339" width="39" height="39" as="geometry"/>
                </mxCell>
                <mxCell id="197" value="" style="sketch=0;points=[[0,0,0],[0.25,0,0],[0.5,0,0],[0.75,0,0],[1,0,0],[0,1,0],[0.25,1,0],[0.5,1,0],[0.75,1,0],[1,1,0],[0,0.25,0],[0,0.5,0],[0,0.75,0],[1,0.25,0],[1,0.5,0],[1,0.75,0]];outlineConnect=0;fontColor=#232F3E;gradientColor=#F54749;gradientDirection=north;fillColor=#C7131F;strokeColor=#ffffff;dashed=0;verticalLabelPosition=bottom;verticalAlign=top;align=center;html=1;fontSize=12;fontStyle=0;aspect=fixed;shape=mxgraph.aws4.resourceIcon;resIcon=mxgraph.aws4.key_management_service;shadow=0;comic=0;fontFamily=Helvetica;" vertex="1" parent="43">
                    <mxGeometry x="-132" y="326" width="39" height="39" as="geometry"/>
                </mxCell>
                <mxCell id="200" style="edgeStyle=none;shape=connector;rounded=1;sketch=0;html=1;entryX=0;entryY=0.75;entryDx=0;entryDy=0;shadow=0;labelBackgroundColor=default;fontFamily=Helvetica;fontSize=12;fontColor=#1A1A1A;endArrow=classic;strokeColor=#6666FF;strokeWidth=1;fillColor=#6a00ff;entryPerimeter=0;" edge="1" parent="43" source="199" target="44">
                    <mxGeometry relative="1" as="geometry"/>
                </mxCell>
                <mxCell id="199" value="" style="sketch=0;outlineConnect=0;fontColor=#232F3E;gradientColor=none;fillColor=#B0084D;strokeColor=none;dashed=0;verticalLabelPosition=bottom;verticalAlign=top;align=center;html=1;fontSize=12;fontStyle=0;aspect=fixed;pointerEvents=1;shape=mxgraph.aws4.parameter_store;shadow=0;comic=0;fontFamily=Helvetica;" vertex="1" parent="43">
                    <mxGeometry x="-21" y="481.59999999999997" width="39" height="40.56" as="geometry"/>
                </mxCell>
                <mxCell id="203" value="salt-minion ami" style="text;html=1;strokeColor=none;fillColor=none;align=center;verticalAlign=middle;whiteSpace=wrap;rounded=0;shadow=0;dashed=1;comic=0;sketch=0;fontFamily=Helvetica;fontSize=12;fontColor=#1A1A1A;" vertex="1" parent="43">
                    <mxGeometry x="887" y="443.5" width="87" height="30" as="geometry"/>
                </mxCell>
                <mxCell id="204" value="salt-master ami" style="text;html=1;strokeColor=none;fillColor=none;align=center;verticalAlign=middle;whiteSpace=wrap;rounded=0;shadow=0;dashed=1;comic=0;sketch=0;fontFamily=Helvetica;fontSize=12;fontColor=#1A1A1A;" vertex="1" parent="43">
                    <mxGeometry x="270" y="458" width="94" height="30" as="geometry"/>
                </mxCell>
                <mxCell id="47" value="efs" parent="0"/>
                <mxCell id="48" style="edgeStyle=none;html=1;fontColor=#000000;strokeWidth=1;fillColor=#6a00ff;strokeColor=#3700CC;shadow=0;sketch=0;orthogonalLoop=0;entryX=0.5;entryY=1;entryDx=0;entryDy=0;exitX=0;exitY=0.5;exitDx=0;exitDy=0;" edge="1" parent="47" source="164" target="143">
                    <mxGeometry relative="1" as="geometry">
                        <mxPoint x="269" y="778" as="targetPoint"/>
                        <Array as="points">
                            <mxPoint x="231" y="854"/>
                        </Array>
                    </mxGeometry>
                </mxCell>
                <mxCell id="49" style="edgeStyle=none;sketch=0;html=1;shadow=0;fontColor=#000000;strokeWidth=1;strokeColor=#3700CC;fillColor=#6a00ff;entryX=0.5;entryY=1;entryDx=0;entryDy=0;exitX=0.99;exitY=0.462;exitDx=0;exitDy=0;exitPerimeter=0;" edge="1" parent="47" source="164" target="141">
                    <mxGeometry relative="1" as="geometry">
                        <mxPoint x="1255" y="764" as="targetPoint"/>
                        <Array as="points">
                            <mxPoint x="1000" y="857"/>
                        </Array>
                    </mxGeometry>
                </mxCell>
                <mxCell id="137" style="edgeStyle=none;shape=connector;rounded=1;sketch=0;html=1;shadow=0;labelBackgroundColor=default;fontFamily=Helvetica;fontSize=15;fontColor=#1A1A1A;endArrow=classic;strokeColor=#6666FF;strokeWidth=1;fillColor=#6a00ff;" edge="1" parent="47" source="164">
                    <mxGeometry relative="1" as="geometry">
                        <mxPoint x="623" y="807" as="targetPoint"/>
                    </mxGeometry>
                </mxCell>
                <mxCell id="51" value="" style="sketch=0;outlineConnect=0;fontColor=#232F3E;gradientColor=none;fillColor=#3F8624;strokeColor=none;dashed=0;verticalLabelPosition=bottom;verticalAlign=top;align=center;html=1;fontSize=12;fontStyle=0;aspect=fixed;pointerEvents=1;shape=mxgraph.aws4.elastic_file_system_standard;shadow=0;container=0;" vertex="1" parent="47">
                    <mxGeometry x="580" y="880" width="81" height="81" as="geometry"/>
                </mxCell>
                <mxCell id="71" value="" style="sketch=0;points=[[0,0,0],[0.25,0,0],[0.5,0,0],[0.75,0,0],[1,0,0],[0,1,0],[0.25,1,0],[0.5,1,0],[0.75,1,0],[1,1,0],[0,0.25,0],[0,0.5,0],[0,0.75,0],[1,0.25,0],[1,0.5,0],[1,0.75,0]];outlineConnect=0;fontColor=#232F3E;gradientColor=#F54749;gradientDirection=north;fillColor=#C7131F;strokeColor=#ffffff;dashed=0;verticalLabelPosition=bottom;verticalAlign=top;align=center;html=1;fontSize=12;fontStyle=0;aspect=fixed;shape=mxgraph.aws4.resourceIcon;resIcon=mxgraph.aws4.key_management_service;shadow=0;comic=0;fontFamily=Helvetica;" vertex="1" parent="47">
                    <mxGeometry x="640" y="947" width="39" height="39" as="geometry"/>
                </mxCell>
                <mxCell id="164" value="Security group" style="fillColor=none;strokeColor=#DD3522;verticalAlign=top;fontStyle=0;fontColor=#DD3522;shadow=0;dashed=1;comic=0;sketch=0;fontFamily=Helvetica;fontSize=15;" vertex="1" parent="47">
                    <mxGeometry x="555.5" y="851" width="130" height="144" as="geometry"/>
                </mxCell>
                <mxCell id="72" value="api" parent="0"/>
                <mxCell id="162" value="Security group" style="fillColor=none;strokeColor=#DD3522;verticalAlign=top;fontStyle=0;fontColor=#DD3522;shadow=0;dashed=1;comic=0;sketch=0;fontFamily=Helvetica;fontSize=12;" vertex="1" parent="72">
                    <mxGeometry x="1026" y="903" width="102" height="104" as="geometry"/>
                </mxCell>
                <mxCell id="73" style="edgeStyle=none;shape=connector;rounded=1;sketch=0;html=1;shadow=0;labelBackgroundColor=default;fontFamily=Helvetica;fontSize=11;fontColor=#000000;endArrow=classic;strokeColor=#6666FF;strokeWidth=3;fillColor=#6a00ff;" edge="1" parent="72" source="74" target="76">
                    <mxGeometry relative="1" as="geometry"/>
                </mxCell>
                <mxCell id="74" value="" style="sketch=0;points=[[0,0,0],[0.25,0,0],[0.5,0,0],[0.75,0,0],[1,0,0],[0,1,0],[0.25,1,0],[0.5,1,0],[0.75,1,0],[1,1,0],[0,0.25,0],[0,0.5,0],[0,0.75,0],[1,0.25,0],[1,0.5,0],[1,0.75,0]];outlineConnect=0;fontColor=#232F3E;gradientColor=#F78E04;gradientDirection=north;fillColor=#D05C17;strokeColor=#ffffff;dashed=0;verticalLabelPosition=bottom;verticalAlign=top;align=center;html=1;fontSize=12;fontStyle=0;aspect=fixed;shape=mxgraph.aws4.resourceIcon;resIcon=mxgraph.aws4.lambda;shadow=0;comic=0;fontFamily=Helvetica;" vertex="1" parent="72">
                    <mxGeometry x="90" y="932" width="60" height="60" as="geometry"/>
                </mxCell>
                <mxCell id="75" style="edgeStyle=none;shape=connector;rounded=1;sketch=0;html=1;shadow=0;labelBackgroundColor=default;fontFamily=Helvetica;fontSize=11;fontColor=#000000;endArrow=classic;strokeColor=#6666FF;strokeWidth=3;fillColor=#6a00ff;" edge="1" parent="72" source="76" target="33">
                    <mxGeometry relative="1" as="geometry">
                        <mxPoint x="610.9302325581393" y="810" as="targetPoint"/>
                        <Array as="points">
                            <mxPoint x="407" y="960"/>
                        </Array>
                    </mxGeometry>
                </mxCell>
                <mxCell id="76" value="" style="outlineConnect=0;dashed=0;verticalLabelPosition=bottom;verticalAlign=top;align=center;html=1;shape=mxgraph.aws3.application_load_balancer;fillColor=#F58536;gradientColor=none;shadow=0;comic=0;sketch=0;fontFamily=Helvetica;fontSize=11;fontColor=#000000;strokeWidth=3;" vertex="1" parent="72">
                    <mxGeometry x="232" y="925" width="74" height="74" as="geometry"/>
                </mxCell>
                <mxCell id="77" style="edgeStyle=none;shape=connector;rounded=1;sketch=0;html=1;shadow=0;labelBackgroundColor=default;fontFamily=Helvetica;fontSize=11;fontColor=#1A1A1A;endArrow=classic;strokeColor=#6666FF;strokeWidth=3;fillColor=#6a00ff;" edge="1" parent="72" source="79" target="161">
                    <mxGeometry relative="1" as="geometry">
                        <Array as="points">
                            <mxPoint x="120" y="1099"/>
                        </Array>
                        <mxPoint x="120" y="990" as="targetPoint"/>
                    </mxGeometry>
                </mxCell>
                <mxCell id="166" style="edgeStyle=none;shape=connector;rounded=1;sketch=0;html=1;shadow=0;labelBackgroundColor=default;fontFamily=Helvetica;fontSize=12;fontColor=#1A1A1A;endArrow=classic;strokeColor=#6666FF;strokeWidth=3;fillColor=#6a00ff;entryX=0.5;entryY=1;entryDx=0;entryDy=0;" edge="1" parent="72" source="79" target="162">
                    <mxGeometry relative="1" as="geometry">
                        <mxPoint x="1086" y="1044" as="targetPoint"/>
                        <Array as="points">
                            <mxPoint x="1077" y="1099"/>
                        </Array>
                    </mxGeometry>
                </mxCell>
                <mxCell id="79" value="" style="sketch=0;points=[[0,0,0],[0.25,0,0],[0.5,0,0],[0.75,0,0],[1,0,0],[0,1,0],[0.25,1,0],[0.5,1,0],[0.75,1,0],[1,1,0],[0,0.25,0],[0,0.5,0],[0,0.75,0],[1,0.25,0],[1,0.5,0],[1,0.75,0]];outlineConnect=0;fontColor=#232F3E;gradientColor=#945DF2;gradientDirection=north;fillColor=#5A30B5;strokeColor=#ffffff;dashed=0;verticalLabelPosition=bottom;verticalAlign=top;align=center;html=1;fontSize=12;fontStyle=0;aspect=fixed;shape=mxgraph.aws4.resourceIcon;resIcon=mxgraph.aws4.api_gateway;shadow=0;comic=0;fontFamily=Helvetica;" vertex="1" parent="72">
                    <mxGeometry x="596" y="1069" width="60" height="60" as="geometry"/>
                </mxCell>
                <mxCell id="80" value="" style="outlineConnect=0;dashed=0;verticalLabelPosition=bottom;verticalAlign=top;align=center;html=1;shape=mxgraph.aws3.dynamo_db;fillColor=#2E73B8;gradientColor=none;shadow=0;comic=0;sketch=0;fontFamily=Helvetica;fontSize=11;fontColor=#1A1A1A;strokeWidth=3;aspect=fixed;" vertex="1" parent="72">
                    <mxGeometry x="1296" y="921" width="60" height="67.5" as="geometry"/>
                </mxCell>
                <mxCell id="81" style="edgeStyle=none;shape=connector;rounded=1;sketch=0;html=1;shadow=0;labelBackgroundColor=default;fontFamily=Helvetica;fontSize=11;fontColor=#1A1A1A;endArrow=classic;strokeColor=#6666FF;strokeWidth=3;fillColor=#6a00ff;" edge="1" parent="72" source="83" target="79">
                    <mxGeometry relative="1" as="geometry"/>
                </mxCell>
                <mxCell id="82" style="edgeStyle=none;shape=connector;rounded=1;sketch=0;html=1;entryX=0;entryY=0.5;entryDx=0;entryDy=0;entryPerimeter=0;shadow=0;labelBackgroundColor=default;fontFamily=Helvetica;fontSize=11;fontColor=#1A1A1A;endArrow=classic;strokeColor=#6666FF;strokeWidth=3;fillColor=#6a00ff;" edge="1" parent="72" source="83" target="84">
                    <mxGeometry relative="1" as="geometry"/>
                </mxCell>
                <mxCell id="83" value="" style="shape=actor;whiteSpace=wrap;html=1;shadow=0;comic=0;sketch=0;fontFamily=Helvetica;fontSize=11;fontColor=#1A1A1A;strokeWidth=3;fillColor=#1A1A1A;" vertex="1" parent="72">
                    <mxGeometry x="601" y="1197" width="50" height="60" as="geometry"/>
                </mxCell>
                <mxCell id="84" value="" style="sketch=0;points=[[0,0,0],[0.25,0,0],[0.5,0,0],[0.75,0,0],[1,0,0],[0,1,0],[0.25,1,0],[0.5,1,0],[0.75,1,0],[1,1,0],[0,0.25,0],[0,0.5,0],[0,0.75,0],[1,0.25,0],[1,0.5,0],[1,0.75,0]];outlineConnect=0;fontColor=#232F3E;gradientColor=#945DF2;gradientDirection=north;fillColor=#5A30B5;strokeColor=#ffffff;dashed=0;verticalLabelPosition=bottom;verticalAlign=top;align=center;html=1;fontSize=12;fontStyle=0;aspect=fixed;shape=mxgraph.aws4.resourceIcon;resIcon=mxgraph.aws4.route_53;shadow=0;comic=0;fontFamily=Helvetica;" vertex="1" parent="72">
                    <mxGeometry x="729" y="1197" width="60" height="60" as="geometry"/>
                </mxCell>
                <mxCell id="87" value="" style="sketch=0;points=[[0,0,0],[0.25,0,0],[0.5,0,0],[0.75,0,0],[1,0,0],[0,1,0],[0.25,1,0],[0.5,1,0],[0.75,1,0],[1,1,0],[0,0.25,0],[0,0.5,0],[0,0.75,0],[1,0.25,0],[1,0.5,0],[1,0.75,0]];outlineConnect=0;fontColor=#232F3E;gradientColor=#F54749;gradientDirection=north;fillColor=#C7131F;strokeColor=#ffffff;dashed=0;verticalLabelPosition=bottom;verticalAlign=top;align=center;html=1;fontSize=12;fontStyle=0;aspect=fixed;shape=mxgraph.aws4.resourceIcon;resIcon=mxgraph.aws4.certificate_manager_3;shadow=0;comic=0;fontFamily=Helvetica;" vertex="1" parent="72">
                    <mxGeometry x="567" y="1115" width="39" height="39" as="geometry"/>
                </mxCell>
                <mxCell id="88" value="" style="sketch=0;points=[[0,0,0],[0.25,0,0],[0.5,0,0],[0.75,0,0],[1,0,0],[0,1,0],[0.25,1,0],[0.5,1,0],[0.75,1,0],[1,1,0],[0,0.25,0],[0,0.5,0],[0,0.75,0],[1,0.25,0],[1,0.5,0],[1,0.75,0]];outlineConnect=0;fontColor=#232F3E;gradientColor=#F54749;gradientDirection=north;fillColor=#C7131F;strokeColor=#ffffff;dashed=0;verticalLabelPosition=bottom;verticalAlign=top;align=center;html=1;fontSize=12;fontStyle=0;aspect=fixed;shape=mxgraph.aws4.resourceIcon;resIcon=mxgraph.aws4.key_management_service;shadow=0;comic=0;fontFamily=Helvetica;" vertex="1" parent="72">
                    <mxGeometry x="1336" y="973.5" width="39" height="39" as="geometry"/>
                </mxCell>
                <mxCell id="100" value="" style="sketch=0;points=[[0,0,0],[0.25,0,0],[0.5,0,0],[0.75,0,0],[1,0,0],[0,1,0],[0.25,1,0],[0.5,1,0],[0.75,1,0],[1,1,0],[0,0.25,0],[0,0.5,0],[0,0.75,0],[1,0.25,0],[1,0.5,0],[1,0.75,0]];outlineConnect=0;fontColor=#232F3E;gradientColor=#F54749;gradientDirection=north;fillColor=#C7131F;strokeColor=#ffffff;dashed=0;verticalLabelPosition=bottom;verticalAlign=top;align=center;html=1;fontSize=12;fontStyle=0;aspect=fixed;shape=mxgraph.aws4.resourceIcon;resIcon=mxgraph.aws4.certificate_manager_3;shadow=0;comic=0;fontFamily=Helvetica;" vertex="1" parent="72">
                    <mxGeometry x="207.4791304347826" y="902" width="38.62695652173913" height="38.62695652173913" as="geometry"/>
                </mxCell>
                <mxCell id="159" value="Security group" style="fillColor=none;strokeColor=#DD3522;verticalAlign=top;fontStyle=0;fontColor=#DD3522;shadow=0;dashed=1;comic=0;sketch=0;fontFamily=Helvetica;fontSize=10;" vertex="1" parent="72">
                    <mxGeometry x="198" y="883" width="118" height="126" as="geometry"/>
                </mxCell>
                <mxCell id="160" value="" style="sketch=0;points=[[0,0,0],[0.25,0,0],[0.5,0,0],[0.75,0,0],[1,0,0],[0,1,0],[0.25,1,0],[0.5,1,0],[0.75,1,0],[1,1,0],[0,0.25,0],[0,0.5,0],[0,0.75,0],[1,0.25,0],[1,0.5,0],[1,0.75,0]];outlineConnect=0;fontColor=#232F3E;gradientColor=#F78E04;gradientDirection=north;fillColor=#D05C17;strokeColor=#ffffff;dashed=0;verticalLabelPosition=bottom;verticalAlign=top;align=center;html=1;fontSize=12;fontStyle=0;aspect=fixed;shape=mxgraph.aws4.resourceIcon;resIcon=mxgraph.aws4.lambda;shadow=0;comic=0;fontFamily=Helvetica;" vertex="1" parent="72">
                    <mxGeometry x="1045" y="934" width="60" height="60" as="geometry"/>
                </mxCell>
                <mxCell id="161" value="Security group" style="fillColor=none;strokeColor=#DD3522;verticalAlign=top;fontStyle=0;fontColor=#DD3522;shadow=0;dashed=1;comic=0;sketch=0;fontFamily=Helvetica;fontSize=12;" vertex="1" parent="72">
                    <mxGeometry x="69" y="905" width="102" height="104" as="geometry"/>
                </mxCell>
                <mxCell id="167" style="edgeStyle=none;shape=connector;rounded=1;sketch=0;html=1;shadow=0;labelBackgroundColor=default;fontFamily=Helvetica;fontSize=12;fontColor=#1A1A1A;endArrow=classic;strokeColor=#6666FF;strokeWidth=3;fillColor=#6a00ff;startArrow=none;" edge="1" parent="72" source="185" target="80">
                    <mxGeometry relative="1" as="geometry"/>
                </mxCell>
                <mxCell id="169" value="" style="points=[[0,0.5,0],[0.24,0,0],[0.5,0.28,0],[0.995,0.475,0],[0.5,0.72,0],[0.24,1,0]];verticalLabelPosition=bottom;sketch=0;html=1;verticalAlign=top;aspect=fixed;align=center;pointerEvents=1;shape=mxgraph.cisco19.key;fillColor=#ffcd28;strokeColor=#d79b00;shadow=0;dashed=1;comic=0;fontFamily=Helvetica;fontSize=12;gradientColor=#ffa500;direction=north;" vertex="1" parent="72">
                    <mxGeometry x="646" y="1119" width="18" height="40" as="geometry"/>
                </mxCell>
                <mxCell id="185" value="" style="sketch=0;outlineConnect=0;fontColor=#232F3E;gradientColor=none;fillColor=#4D27AA;strokeColor=none;dashed=0;verticalLabelPosition=bottom;verticalAlign=top;align=center;html=1;fontSize=12;fontStyle=0;aspect=fixed;pointerEvents=1;shape=mxgraph.aws4.gateway;shadow=0;comic=0;fontFamily=Helvetica;" vertex="1" parent="72">
                    <mxGeometry x="1187" y="931.66" width="45" height="46.18" as="geometry"/>
                </mxCell>
                <mxCell id="188" value="" style="edgeStyle=none;shape=connector;rounded=1;sketch=0;html=1;shadow=0;labelBackgroundColor=default;fontFamily=Helvetica;fontSize=12;fontColor=#1A1A1A;endArrow=none;strokeColor=#6666FF;strokeWidth=3;fillColor=#6a00ff;" edge="1" parent="72" source="162" target="185">
                    <mxGeometry relative="1" as="geometry">
                        <mxPoint x="1128" y="954.9600313479623" as="sourcePoint"/>
                        <mxPoint x="1366" y="954.7735109717869" as="targetPoint"/>
                    </mxGeometry>
                </mxCell>
                <mxCell id="202" style="edgeStyle=none;shape=connector;rounded=1;sketch=0;html=1;entryX=0.5;entryY=1;entryDx=0;entryDy=0;entryPerimeter=0;shadow=0;labelBackgroundColor=default;fontFamily=Helvetica;fontSize=12;fontColor=#1A1A1A;endArrow=classic;strokeColor=#6666FF;strokeWidth=1;fillColor=#6a00ff;" edge="1" parent="72">
                    <mxGeometry relative="1" as="geometry">
                        <mxPoint x="69" y="957" as="sourcePoint"/>
                        <mxPoint x="759" y="1257" as="targetPoint"/>
                        <Array as="points">
                            <mxPoint x="23" y="957"/>
                            <mxPoint x="23" y="1287"/>
                            <mxPoint x="759" y="1287"/>
                        </Array>
                    </mxGeometry>
                </mxCell>
                <mxCell id="206" value="instance-state-change-event" parent="0"/>
                <mxCell id="207" value="" style="sketch=0;points=[[0,0,0],[0.25,0,0],[0.5,0,0],[0.75,0,0],[1,0,0],[0,1,0],[0.25,1,0],[0.5,1,0],[0.75,1,0],[1,1,0],[0,0.25,0],[0,0.5,0],[0,0.75,0],[1,0.25,0],[1,0.5,0],[1,0.75,0]];outlineConnect=0;fontColor=#232F3E;gradientColor=#F78E04;gradientDirection=north;fillColor=#D05C17;strokeColor=#ffffff;dashed=0;verticalLabelPosition=bottom;verticalAlign=top;align=center;html=1;fontSize=12;fontStyle=0;aspect=fixed;shape=mxgraph.aws4.resourceIcon;resIcon=mxgraph.aws4.lambda;shadow=0;comic=0;fontFamily=Helvetica;" vertex="1" parent="206">
                    <mxGeometry x="587" y="412" width="60" height="60" as="geometry"/>
                </mxCell>
                <mxCell id="212" style="edgeStyle=none;shape=connector;rounded=1;sketch=0;html=1;shadow=0;labelBackgroundColor=default;fontFamily=Helvetica;fontSize=12;fontColor=#1A1A1A;endArrow=classic;strokeColor=#6666FF;strokeWidth=1;fillColor=#6a00ff;startArrow=none;" edge="1" parent="206" source="219" target="42">
                    <mxGeometry relative="1" as="geometry">
                        <Array as="points">
                            <mxPoint x="698" y="477"/>
                            <mxPoint x="698" y="514"/>
                        </Array>
                    </mxGeometry>
                </mxCell>
                <mxCell id="213" style="edgeStyle=none;shape=connector;rounded=1;sketch=0;html=1;shadow=0;labelBackgroundColor=default;fontFamily=Helvetica;fontSize=12;fontColor=#1A1A1A;endArrow=classic;strokeColor=#6666FF;strokeWidth=1;fillColor=#6a00ff;startArrow=none;" edge="1" parent="206" source="217" target="33">
                    <mxGeometry relative="1" as="geometry">
                        <Array as="points">
                            <mxPoint x="504" y="477"/>
                            <mxPoint x="504" y="658"/>
                        </Array>
                    </mxGeometry>
                </mxCell>
                <mxCell id="214" style="edgeStyle=none;shape=connector;rounded=1;sketch=0;html=1;entryX=1;entryY=0.22;entryDx=0;entryDy=0;entryPerimeter=0;shadow=0;labelBackgroundColor=default;fontFamily=Helvetica;fontSize=12;fontColor=#1A1A1A;endArrow=classic;strokeColor=#6666FF;strokeWidth=1;fillColor=#6a00ff;exitX=1;exitY=0;exitDx=0;exitDy=0;" edge="1" parent="206" source="208" target="80">
                    <mxGeometry relative="1" as="geometry">
                        <Array as="points">
                            <mxPoint x="666" y="327"/>
                            <mxPoint x="1486" y="327"/>
                            <mxPoint x="1486" y="936"/>
                        </Array>
                    </mxGeometry>
                </mxCell>
                <mxCell id="215" style="edgeStyle=none;shape=connector;rounded=1;sketch=0;html=1;exitX=1;exitY=0.5;exitDx=0;exitDy=0;entryX=1;entryY=0.25;entryDx=0;entryDy=0;shadow=0;labelBackgroundColor=default;fontFamily=Helvetica;fontSize=12;fontColor=#1A1A1A;endArrow=classic;strokeColor=#6666FF;strokeWidth=1;fillColor=#6a00ff;" edge="1" parent="206" source="208" target="164">
                    <mxGeometry relative="1" as="geometry">
                        <Array as="points">
                            <mxPoint x="723" y="437"/>
                            <mxPoint x="723" y="887"/>
                        </Array>
                    </mxGeometry>
                </mxCell>
                <mxCell id="208" value="Security group" style="fillColor=none;strokeColor=#DD3522;verticalAlign=top;fontStyle=0;fontColor=#DD3522;shadow=0;dashed=1;comic=0;sketch=0;fontFamily=Helvetica;fontSize=12;" vertex="1" parent="206">
                    <mxGeometry x="564" y="385" width="102" height="104" as="geometry"/>
                </mxCell>
                <mxCell id="211" style="edgeStyle=none;shape=connector;rounded=1;sketch=0;html=1;entryX=0;entryY=0;entryDx=0;entryDy=0;shadow=0;labelBackgroundColor=default;fontFamily=Helvetica;fontSize=12;fontColor=#1A1A1A;endArrow=classic;strokeColor=#6666FF;strokeWidth=1;fillColor=#6a00ff;" edge="1" parent="206" source="210" target="208">
                    <mxGeometry relative="1" as="geometry">
                        <Array as="points">
                            <mxPoint x="429" y="332"/>
                            <mxPoint x="564" y="332"/>
                        </Array>
                    </mxGeometry>
                </mxCell>
                <mxCell id="210" value="" style="sketch=0;outlineConnect=0;fontColor=#232F3E;gradientColor=none;fillColor=#B0084D;strokeColor=none;dashed=0;verticalLabelPosition=bottom;verticalAlign=top;align=center;html=1;fontSize=12;fontStyle=0;aspect=fixed;pointerEvents=1;shape=mxgraph.aws4.event;shadow=0;comic=0;fontFamily=Helvetica;" vertex="1" parent="206">
                    <mxGeometry x="401" y="47" width="60" height="60" as="geometry"/>
                </mxCell>
                <mxCell id="217" value="" style="sketch=0;outlineConnect=0;fontColor=#232F3E;gradientColor=none;fillColor=#B0084D;strokeColor=none;dashed=0;verticalLabelPosition=bottom;verticalAlign=top;align=center;html=1;fontSize=12;fontStyle=0;aspect=fixed;pointerEvents=1;shape=mxgraph.aws4.run_command;shadow=0;comic=0;fontFamily=Helvetica;" vertex="1" parent="206">
                    <mxGeometry x="482" y="450" width="39" height="27.5" as="geometry"/>
                </mxCell>
                <mxCell id="218" value="" style="edgeStyle=none;shape=connector;rounded=1;sketch=0;html=1;exitX=0;exitY=0.75;exitDx=0;exitDy=0;shadow=0;labelBackgroundColor=default;fontFamily=Helvetica;fontSize=12;fontColor=#1A1A1A;endArrow=none;strokeColor=#6666FF;strokeWidth=1;fillColor=#6a00ff;" edge="1" parent="206" source="208" target="217">
                    <mxGeometry relative="1" as="geometry">
                        <mxPoint x="564" y="463" as="sourcePoint"/>
                        <mxPoint x="540.6315789473683" y="688" as="targetPoint"/>
                        <Array as="points"/>
                    </mxGeometry>
                </mxCell>
                <mxCell id="219" value="" style="sketch=0;outlineConnect=0;fontColor=#232F3E;gradientColor=none;fillColor=#B0084D;strokeColor=none;dashed=0;verticalLabelPosition=bottom;verticalAlign=top;align=center;html=1;fontSize=12;fontStyle=0;aspect=fixed;pointerEvents=1;shape=mxgraph.aws4.run_command;shadow=0;comic=0;fontFamily=Helvetica;" vertex="1" parent="206">
                    <mxGeometry x="673" y="450" width="39" height="27.5" as="geometry"/>
                </mxCell>
                <mxCell id="220" value="" style="edgeStyle=none;shape=connector;rounded=1;sketch=0;html=1;exitX=1;exitY=0.75;exitDx=0;exitDy=0;shadow=0;labelBackgroundColor=default;fontFamily=Helvetica;fontSize=12;fontColor=#1A1A1A;endArrow=none;strokeColor=#6666FF;strokeWidth=1;fillColor=#6a00ff;" edge="1" parent="206" source="208" target="219">
                    <mxGeometry relative="1" as="geometry">
                        <mxPoint x="666" y="463" as="sourcePoint"/>
                        <mxPoint x="679.6470588235293" y="534" as="targetPoint"/>
                        <Array as="points"/>
                    </mxGeometry>
                </mxCell>
            </root>
        </mxGraphModel>
    </diagram>
</mxfile>